<?xml version="1.0" encoding="UTF-8"?>
<svg width="327.77" height="72.869" version="1.1" viewBox="0 0 327.77 72.869" xml:space="preserve" xmlns="http://www.w3.org/2000/svg" xmlns:cc="http://creativecommons.org/ns#" xmlns:dc="http://purl.org/dc/elements/1.1/" xmlns:rdf="http://www.w3.org/1999/02/22-rdf-syntax-ns#" xmlns:xlink="http://www.w3.org/1999/xlink"><metadata><rdf:RDF><cc:Work rdf:about=""><dc:format>image/svg+xml</dc:format><dc:type rdf:resource="http://purl.org/dc/dcmitype/StillImage"/><dc:title/></cc:Work></rdf:RDF></metadata><defs><marker id="marker6735" overflow="visible" orient="auto"><path transform="matrix(-.4 0 0 -.4 -4 0)" d="m0 0 5-5-17.5 5 17.5 5z" fill="#404040" fill-rule="evenodd" stroke="#404040" stroke-width="1pt"/></marker><marker id="Arrow1Mend" overflow="visible" orient="auto"><path transform="matrix(-.4 0 0 -.4 -4 0)" d="m0 0 5-5-17.5 5 17.5 5z" fill="#404040" fill-rule="evenodd" stroke="#404040" stroke-width="1pt"/></marker></defs><g transform="matrix(1.3333 0 0 -1.3333 517.49 927.94)"><text transform="scale(1,-1)" x="-389.20959" y="-664.87659" fill="#404040" font-family="Sans" font-size="12px" letter-spacing="0px" stroke-width=".75px" word-spacing="0px" style="line-height:125%" xml:space="preserve"><tspan x="-389.20959" y="-664.87659" fill="#404040" stroke-width=".75px">map(      , func, ...)</tspan></text><g transform="translate(77.052 -89.515)"><rect transform="scale(1,-1)" x="-430.1" y="-780.53" width="9.5852" height="9.5852" fill="#00ff68" opacity=".9" stroke-width=".99998"/><g stroke-width=".99998"><rect transform="scale(1,-1)" x="-430.19" y="-768.79" width="9.5852" height="9.5852" fill="#00bf4f" opacity=".9"/><rect transform="scale(1,-1)" x="-430.19" y="-757.03" width="9.5852" height="9.5852" fill="#008034" opacity=".9"/><rect transform="scale(1,-1)" x="-430.15" y="-745.12" width="9.5852" height="9.5852" fill="#00401a" opacity=".9"/></g><rect transform="scale(1,-1)" x="-434.14" y="-784.13" width="17.431" height="51.977" ry="7.9527" fill="none" opacity=".9" stroke="#404040" stroke-width=".74998"/></g><g transform="translate(243.96 -90.256)"><rect transform="scale(1,-1)" x="-400.17" y="-780.91" width="9.5852" height="9.5852" fill="#00e8ff" opacity=".9" stroke-width=".99998"/><g stroke-width=".99998"><rect transform="scale(1,-1)" x="-400.15" y="-769.23" width="9.5852" height="9.5852" fill="#00aebf" opacity=".9"/><rect transform="scale(1,-1)" x="-400.22" y="-757.41" width="9.5852" height="9.5852" fill="#007480" opacity=".9"/><rect transform="scale(1,-1)" x="-400.11" y="-745.9" width="9.5852" height="9.5852" fill="#003a40" opacity=".9"/></g><rect transform="scale(1,-1)" x="-404.06" y="-784.62" width="17.431" height="51.977" ry="7.9527" fill="none" opacity=".9" stroke="#404040" stroke-width=".74998"/></g><g transform="translate(-46.763 23.951)"><g transform="translate(0,-1.5)"><text transform="scale(1,-1)" x="-206.41005" y="-664.38751" fill="#404040" font-family="Sans" font-size="12px" letter-spacing="0px" stroke-width=".75px" word-spacing="0px" style="line-height:125%" xml:space="preserve"><tspan x="-206.41005" y="-664.38751" fill="#404040" stroke-width=".75px">func(    , ...)</tspan></text><rect transform="scale(1,-1)" x="-173.11" y="-672.96" width="9.5852" height="9.5852" fill="#00ff68" opacity=".9" stroke-width=".99998"/></g><g><rect transform="scale(1,-1)" x="-173.52" y="-657.09" width="9.5852" height="9.5852" fill="#00bf4f" opacity=".9" stroke-width=".99998"/><text transform="scale(1,-1)" x="-206.67616" y="-648.44421" fill="#404040" font-family="Sans" font-size="12px" letter-spacing="0px" stroke-width=".75px" word-spacing="0px" style="line-height:125%" xml:space="preserve"><tspan x="-206.67616" y="-648.44421" fill="#404040" stroke-width=".75px">func(    , ...)</tspan></text><rect transform="scale(1,-1)" x="-173.48" y="-641.63" width="9.5852" height="9.5852" fill="#008034" opacity=".9" stroke-width=".99998"/><text transform="scale(1,-1)" x="-206.64372" y="-633.34283" fill="#404040" font-family="Sans" font-size="12px" letter-spacing="0px" stroke-width=".75px" word-spacing="0px" style="line-height:125%" xml:space="preserve"><tspan x="-206.64372" y="-633.34283" fill="#404040" stroke-width=".75px">func(    , ...)</tspan></text><rect transform="scale(1,-1)" x="-173.83" y="-627.32" width="9.5852" height="9.5852" fill="#00401a" opacity=".9" stroke-width=".99998"/><text transform="scale(1,-1)" x="-206.65421" y="-618.9353" fill="#404040" font-family="Sans" font-size="12px" letter-spacing="0px" stroke-width=".75px" word-spacing="0px" style="line-height:125%" xml:space="preserve"><tspan x="-206.65421" y="-618.9353" fill="#404040" stroke-width=".75px">func(    , ...)</tspan></text></g></g><path d="m-275.93 668.56 18.452-0.10917" fill="none" marker-end="url(#Arrow1Mend)" stroke="#404040" stroke-width=".75"/><path d="m-182.99 668.59 18.452-0.10917" fill="none" marker-end="url(#marker6735)" stroke="#404040" stroke-width=".75"/></g></svg>
