<?xml version="1.0" encoding="UTF-8"?>
<svg width="409.29" height="77.249" version="1.1" viewBox="0 0 409.29 77.249" xml:space="preserve" xmlns="http://www.w3.org/2000/svg" xmlns:cc="http://creativecommons.org/ns#" xmlns:dc="http://purl.org/dc/elements/1.1/" xmlns:rdf="http://www.w3.org/1999/02/22-rdf-syntax-ns#"><metadata><rdf:RDF><cc:Work rdf:about=""><dc:format>image/svg+xml</dc:format><dc:type rdf:resource="http://purl.org/dc/dcmitype/StillImage"/><dc:title/></cc:Work></rdf:RDF></metadata><defs><marker id="marker1592" overflow="visible" orient="auto"><path transform="matrix(-.4 0 0 -.4 -4 0)" d="m0 0 5-5-17.5 5 17.5 5z" fill="#404040" fill-rule="evenodd" stroke="#404040" stroke-width="1pt"/></marker><marker id="marker1741" overflow="visible" orient="auto"><path transform="matrix(-.4 0 0 -.4 -4 0)" d="m0 0 5-5-17.5 5 17.5 5z" fill="#404040" fill-rule="evenodd" stroke="#404040" stroke-width="1pt"/></marker><marker id="Arrow1Mend" overflow="visible" orient="auto"><path transform="matrix(-.4 0 0 -.4 -4 0)" d="m0 0 5-5-17.5 5 17.5 5z" fill="#404040" fill-rule="evenodd" stroke="#404040" stroke-width="1pt"/></marker></defs><g transform="matrix(1.3333 0 0 -1.3333 504.42 747.35)"><text transform="scale(1,-1)" x="-379.41165" y="-527.96875" fill="#404040" font-family="Sans" font-size="12px" letter-spacing="0px" stroke-width=".75px" word-spacing="0px" style="line-height:125%" xml:space="preserve"><tspan x="-379.41165" y="-527.96875" fill="#404040" stroke-width=".75px">reduce(      , func, ...)</tspan></text><g transform="translate(102.6 -226.44)"><rect transform="scale(1,-1)" x="-430.1" y="-780.53" width="9.5852" height="9.5852" fill="#00ff68" opacity=".9" stroke-width=".99998"/><g stroke-width=".99998"><rect transform="scale(1,-1)" x="-430.19" y="-768.79" width="9.5852" height="9.5852" fill="#00bf4f" opacity=".9"/><rect transform="scale(1,-1)" x="-430.19" y="-757.03" width="9.5852" height="9.5852" fill="#008034" opacity=".9"/><rect transform="scale(1,-1)" x="-430.15" y="-745.12" width="9.5852" height="9.5852" fill="#00401a" opacity=".9"/></g><rect transform="scale(1,-1)" x="-434.14" y="-784.13" width="17.431" height="51.977" ry="7.9527" fill="none" opacity=".9" stroke="#404040" stroke-width=".74998"/></g><g transform="translate(-25.501)"><g transform="translate(2.5035 12.175)"><rect transform="scale(1,-1)" x="-62.246" y="-524.28" width="9.5852" height="9.5852" fill="#007480" opacity=".9" stroke-width=".99998"/><rect transform="scale(1,-1)" x="-66.156" y="-528.9" width="17.431" height="18.762" ry="2.8707" fill="none" opacity=".9" stroke="#404040" stroke-width=".75002"/></g></g><path d="m-250.38 531.63 18.452-0.10917" fill="none" marker-end="url(#Arrow1Mend)" stroke="#404040" stroke-width=".75"/><path d="m-137.01 507.24c26.504 0.0354 15.228 23.287 41.749 23.848" fill="none" marker-end="url(#Arrow1Mend)" stroke="#404040" stroke-width=".75"/><g transform="translate(74.546 -209.07)"><g transform="translate(-78.739 232.37)"><g transform="translate(-16.688 -136.28)"><text transform="scale(1,-1)" x="-206.41005" y="-664.38751" fill="#404040" font-family="Sans" font-size="12px" letter-spacing="0px" stroke-width=".75px" word-spacing="0px" style="line-height:125%" xml:space="preserve"><tspan x="-206.41005" y="-664.38751" fill="#404040" stroke-width=".75px">func(    ,    , ...)</tspan></text><rect transform="scale(1,-1)" x="-173.11" y="-672.96" width="9.5852" height="9.5852" fill="#00ff68" opacity=".9" stroke-width=".99998"/></g><rect transform="scale(1,-1)" x="-170.67" y="-536.8" width="9.5852" height="9.5852" fill="#00bf4f" opacity=".9" stroke-width=".99998"/></g><path d="m-211.57 763.88c12.976-0.2968 11.71-10.159-5.4758-10.199-41.046-0.096-40.544-1.6846-45.157-6.4746" fill="none" marker-end="url(#marker1741)" stroke="#404040" stroke-width=".75002"/><g transform="translate(-96.687 226.29)"><rect transform="scale(1,-1)" x="-171.31" y="-518.93" width="9.5852" height="9.5852" fill="#00e8ff" opacity=".9" stroke-width=".99998"/><rect transform="scale(1,-1)" x="-151.83" y="-518.86" width="9.5852" height="9.5852" fill="#008034" opacity=".9" stroke-width=".99998"/><text transform="scale(1,-1)" x="-205.08469" y="-510.17575" fill="#404040" font-family="Sans" font-size="12px" letter-spacing="0px" stroke-width=".75px" word-spacing="0px" style="line-height:125%" xml:space="preserve"><tspan x="-205.08469" y="-510.17575" fill="#404040" stroke-width=".75px">func(    ,    , ...)</tspan></text></g><g transform="translate(-17.723 29.132)"><rect transform="scale(1,-1)" x="-250.35" y="-692.85" width="9.5852" height="9.5852" fill="#00aebf" opacity=".9" stroke-width=".99998"/><rect transform="scale(1,-1)" x="-231.28" y="-692.83" width="9.5852" height="9.5852" fill="#00401a" opacity=".9" stroke-width=".99998"/><text transform="scale(1,-1)" x="-284.12701" y="-684.10742" fill="#404040" font-family="Sans" font-size="12px" letter-spacing="0px" stroke-width=".75px" word-spacing="0px" style="line-height:125%" xml:space="preserve"><tspan x="-284.12701" y="-684.10742" fill="#404040" stroke-width=".75px">func(    ,    , ...)</tspan></text></g><path d="m-211.41 740.24c12.976-0.2968 11.71-10.159-5.4758-10.199-41.046-0.096-40.544-1.6846-45.157-6.4746" fill="none" marker-end="url(#marker1592)" stroke="#404040" stroke-width=".75002"/></g></g></svg>
