<?xml version="1.0" encoding="UTF-8"?>
<svg width="260.49" height="94.928" version="1.1" viewBox="0 0 260.49 94.928" xml:space="preserve" xmlns="http://www.w3.org/2000/svg" xmlns:cc="http://creativecommons.org/ns#" xmlns:dc="http://purl.org/dc/elements/1.1/" xmlns:rdf="http://www.w3.org/1999/02/22-rdf-syntax-ns#" xmlns:xlink="http://www.w3.org/1999/xlink"><metadata><rdf:RDF><cc:Work rdf:about=""><dc:format>image/svg+xml</dc:format><dc:type rdf:resource="http://purl.org/dc/dcmitype/StillImage"/><dc:title/></cc:Work></rdf:RDF></metadata><defs><clipPath id="clipPath7989"><path d="m479.34 168.8h56.828v22.594h-56.828z"/></clipPath><clipPath id="clipPath8003"><path d="m506.81 175.09h8v8h-8z"/></clipPath><clipPath id="clipPath8013"><path d="m519.81 175.09h8v8h-8z"/></clipPath><clipPath id="clipPath8023"><path d="m492.47 150.07h56.828v22.594h-56.828z"/></clipPath><clipPath id="clipPath8037"><path d="m519.93 156.28h8v8h-8z"/></clipPath><clipPath id="clipPath8047"><path d="m528.7 160.1h15.657v16.657h-15.657z"/></clipPath><clipPath id="clipPath8061"><path d="m532.93 156.37h8v8h-8z"/></clipPath><clipPath id="clipPath8071"><path d="m505.59 131.35h56.828v22.594h-56.828z"/></clipPath><clipPath id="clipPath8085"><path d="m533.06 137.46h8v8h-8z"/></clipPath><clipPath id="clipPath8095"><path d="m541.83 141.37h15.657v16.657h-15.657z"/></clipPath><clipPath id="clipPath8109"><path d="m546.06 137.64h8v8h-8z"/></clipPath><clipPath id="clipPath8119"><path d="m547.06 118.64h8v8h-8z"/></clipPath><clipPath id="clipPath8129"><path d="m416.56 171.39h8v8h-8z"/></clipPath><clipPath id="clipPath8139"><path d="m429.56 171.39h8v8h-8z"/></clipPath><clipPath id="clipPath8149"><path d="m442.69 171.39h8v8h-8z"/></clipPath><clipPath id="clipPath8159"><path d="m455.82 171.39h8v8h-8z"/></clipPath><clipPath id="clipPath8169"><path d="m412.33 174.65h15.657v16.657h-15.657z"/></clipPath><clipPath id="clipPath8183"><path d="m425.33 174.65h15.657v16.657h-15.657z"/></clipPath><clipPath id="clipPath8197"><path d="m438.46 174.65h15.657v16.657h-15.657z"/></clipPath><clipPath id="clipPath8211"><path d="m451.58 174.65h15.657v16.657h-15.657z"/></clipPath><clipPath id="clipPath8225"><path d="m411.35 167.92h59.122v21.594h-59.122z"/></clipPath><clipPath id="clipPath8237"><path d="m377.48 167.8h37.49v22.594h-37.49z"/></clipPath><clipPath id="clipPath8251"><path d="m470.36 177.21h12.992v5h-12.992z"/></clipPath><clipPath id="clipPath8265"><path d="m556.36 120.14h12.992v5h-12.992z"/></clipPath><clipPath id="clipPath8279"><path d="m570.62 118.64h8v8h-8z"/></clipPath><clipPath id="clipPath8289"><path d="m482.9 170.12h46.717v2.5h-46.717z"/></clipPath><clipPath id="clipPath8301"><path d="m495.9 151.12h46.717v2.5h-46.717z"/></clipPath><clipPath id="clipPath8313"><path d="m509.9 132.12h46.717v2.5h-46.717z"/></clipPath><clipPath id="clipPath8325"><path d="m518.84 173.75 5.4832-8.0026-4.1247-2.8262-5.4832 8.0026z"/></clipPath><clipPath id="clipPath8331"><path d="m0 0h1100v850h-1100z"/></clipPath><clipPath id="clipPath8345"><path d="m531.84 154.75 5.4832-8.0026-4.1247-2.8262-5.4832 8.0026z"/></clipPath><clipPath id="clipPath8351"><path d="m0 0h1100v850h-1100z"/></clipPath><clipPath id="clipPath8365"><path d="m544.84 135.75 5.4832-8.0026-4.1247-2.8262-5.4832 8.0026z"/></clipPath><clipPath id="clipPath8371"><path d="m0 0h1100v850h-1100z"/></clipPath></defs><g transform="matrix(1.3333 0 0 -1.3333 431.27 845.24)"><g transform="translate(-705.7 443.1)"><text transform="scale(1,-1)" x="508" y="-184" fill="#4c4c4c" font-family="SourceSansPro" font-size="9px" font-weight="300"><tspan x="508" y="-184">a</tspan></text><text transform="scale(1,-1)" x="521" y="-184" fill="#4c4c4c" font-family="SourceSansPro" font-size="9px" font-weight="300"><tspan x="521" y="-184">b</tspan></text><g clip-path="url(#clipPath7989)"><g transform="translate(484,176)"><text transform="scale(1,-1)" fill="#4c4c4c" font-family="SourceSansPro" font-size="11px"><tspan x="0 3.2119999 9.1960001 15.213 20.229 23.562 32.362 35.101002 43.901001" y="0">func( , )</tspan></text></g></g><g clip-path="url(#clipPath8003)"><path d="m507.81 182.09h6v-6h-6z" fill="#a8d379"/></g><g clip-path="url(#clipPath8013)"><path d="m520.81 182.09h6v-6h-6z" fill="#a8d379"/></g><g clip-path="url(#clipPath8023)"><g transform="translate(497,157)"><text transform="scale(1,-1)" fill="#4c4c4c" font-family="SourceSansPro" font-size="11px"><tspan x="0 3.2119999 9.1960001 15.213 20.229 23.562 32.362 35.101002 43.901001" y="0">func( , )</tspan></text></g></g><g clip-path="url(#clipPath8037)"><path d="m520.93 163.28h6v-6h-6z" fill="#78a642"/></g><g clip-path="url(#clipPath8047)"><g transform="translate(535,165)"><text transform="scale(1,-1)" fill="#4c4c4c" font-family="SourceSansPro" font-size="9px" font-weight="300"><tspan x="0" y="0">c</tspan></text></g></g><g clip-path="url(#clipPath8061)"><path d="m533.93 163.37h6v-6h-6z" fill="#a8d379"/></g><g clip-path="url(#clipPath8071)"><g transform="translate(510,139)"><text transform="scale(1,-1)" fill="#4c4c4c" font-family="SourceSansPro" font-size="11px"><tspan x="0 3.2119999 9.1960001 15.213 20.229 23.562 32.362 35.101002 43.901001" y="0">func( , )</tspan></text></g></g><g clip-path="url(#clipPath8085)"><path d="m534.06 144.46h6v-6h-6z" fill="#407742"/></g><g clip-path="url(#clipPath8095)"><g transform="translate(547,147)"><text transform="scale(1,-1)" fill="#4c4c4c" font-family="SourceSansPro" font-size="9px" font-weight="300"><tspan x="0" y="0">d</tspan></text></g></g><g clip-path="url(#clipPath8109)"><path d="m547.06 144.64h6v-6h-6z" fill="#a8d379"/></g><g clip-path="url(#clipPath8119)"><path d="m548.06 125.64h6v-6h-6z" fill="#004100"/></g><g clip-path="url(#clipPath8129)"><path d="m417.56 178.39h6v-6h-6z" fill="#a8d379"/></g><g clip-path="url(#clipPath8139)"><path d="m430.56 178.39h6v-6h-6z" fill="#a8d379"/></g><g clip-path="url(#clipPath8149)"><path d="m443.69 178.39h6v-6h-6z" fill="#a8d379"/></g><g clip-path="url(#clipPath8159)"><path d="m456.82 178.39h6v-6h-6z" fill="#a8d379"/></g><g clip-path="url(#clipPath8169)"><g transform="translate(418,180)"><text transform="scale(1,-1)" fill="#4c4c4c" font-family="SourceSansPro" font-size="9px" font-weight="300"><tspan x="0" y="0">a</tspan></text></g></g><g clip-path="url(#clipPath8183)"><g transform="translate(431,180)"><text transform="scale(1,-1)" fill="#4c4c4c" font-family="SourceSansPro" font-size="9px" font-weight="300"><tspan x="0" y="0">b</tspan></text></g></g><g clip-path="url(#clipPath8197)"><g transform="translate(444,180)"><text transform="scale(1,-1)" fill="#4c4c4c" font-family="SourceSansPro" font-size="9px" font-weight="300"><tspan x="0" y="0">c</tspan></text></g></g><g clip-path="url(#clipPath8211)"><g transform="translate(457,180)"><text transform="scale(1,-1)" fill="#4c4c4c" font-family="SourceSansPro" font-size="9px" font-weight="300"><tspan x="0" y="0">d</tspan></text></g></g><g clip-path="url(#clipPath8225)"><g transform="matrix(1 0 0 -1 412.72 188.14)"><path d="m8.4543 0h39.463c2.4238 0 3.6545 0 4.9618 0.4143 1.4306 0.52069 2.5575 1.6476 3.0782 3.0782 0.4143 1.3073 0.4143 2.538 0.4143 4.9994v1.8976c0 2.4238 0 3.6545-0.4143 4.9618-0.52069 1.4306-1.6476 2.5575-3.0782 3.0782-1.3073 0.4143-2.538 0.4143-4.9994 0.4143h-39.426c-2.4238 0-3.6545 0-4.9618-0.4143-1.4306-0.52069-2.5575-1.6476-3.0782-3.0782-0.4143-1.3073-0.4143-2.538-0.4143-4.9994v-1.8976c0-2.4238 0-3.6545 0.4143-4.9618 0.52069-1.4306 1.6476-2.5575 3.0782-3.0782 1.3073-0.4143 2.538-0.4143 4.9994-0.4143z" fill="none" stroke="#53585f" stroke-width=".85"/></g></g><g clip-path="url(#clipPath8237)"><g transform="translate(382,175)"><text transform="scale(1,-1)" fill="#4c4c4c" font-family="SourceSansPro" font-size="11px"><tspan x="0 3.2119999 9.1960001 15.213 20.229 22.429001" y="0">func +</tspan></text></g></g><g clip-path="url(#clipPath8251)"><g transform="matrix(1 0 0 -1 471.36 179.71)"><path d="m0 0h8.2425" fill="none" stroke="#53585f" stroke-width=".5"/></g><path d="m479.35 178.21 3 1.5-3 1.5z" fill="#53585f"/></g><g clip-path="url(#clipPath8265)"><g transform="matrix(1 0 0 -1 557.36 122.64)"><path d="m0 0h8.2425" fill="none" stroke="#53585f" stroke-width=".5"/></g><path d="m565.35 121.14 3 1.5-3 1.5z" fill="#53585f"/></g><g clip-path="url(#clipPath8279)"><path d="m571.62 125.64h6v-6h-6z" fill="#004100"/></g><g clip-path="url(#clipPath8289)"><g transform="matrix(1 0 0 -1 483.9 171.37)"><path d="m0 0h44.717" fill="none" stroke="#53585f" stroke-width=".5"/></g></g><g clip-path="url(#clipPath8301)"><g transform="matrix(1 0 0 -1 496.9 152.37)"><path d="m0 0h44.717" fill="none" stroke="#53585f" stroke-width=".5"/></g></g><g clip-path="url(#clipPath8313)"><g transform="matrix(1 0 0 -1 510.9 133.37)"><path d="m0 0h44.717" fill="none" stroke="#53585f" stroke-width=".5"/></g></g><g clip-path="url(#clipPath8325)"><g clip-path="url(#clipPath8331)"><g transform="matrix(.56522 -.82494 -.82494 -.56522 517.34 171.51)"><path d="m0 0h4.9508" fill="none" stroke="#53585f" stroke-width=".5"/></g><path d="m518.76 166.79 2.9331-1.627-0.4583 3.3227z" fill="#53585f"/></g></g><g clip-path="url(#clipPath8345)"><g clip-path="url(#clipPath8351)"><g transform="matrix(.56522 -.82494 -.82494 -.56522 530.34 152.51)"><path d="m0 0h4.9508" fill="none" stroke="#53585f" stroke-width=".5"/></g><path d="m531.76 147.79 2.9331-1.627-0.4583 3.3227z" fill="#53585f"/></g></g><g clip-path="url(#clipPath8365)"><g clip-path="url(#clipPath8371)"><g transform="matrix(.56522 -.82494 -.82494 -.56522 543.34 133.51)"><path d="m0 0h4.9508" fill="none" stroke="#53585f" stroke-width=".5"/></g><path d="m544.76 128.79 2.9331-1.627-0.4583 3.3227z" fill="#53585f"/></g></g></g></g></svg>
