<?xml version="1.0" encoding="UTF-8" standalone="no"?>
<svg
   xmlns:dc="http://purl.org/dc/elements/1.1/"
   xmlns:cc="http://creativecommons.org/ns#"
   xmlns:rdf="http://www.w3.org/1999/02/22-rdf-syntax-ns#"
   xmlns:svg="http://www.w3.org/2000/svg"
   xmlns="http://www.w3.org/2000/svg"
   xmlns:sodipodi="http://sodipodi.sourceforge.net/DTD/sodipodi-0.dtd"
   xmlns:inkscape="http://www.inkscape.org/namespaces/inkscape"
   width="443.28918"
   height="70.30088"
   version="1.1"
   viewBox="0 0 443.2892 70.300879"
   xml:space="preserve"
   id="svg318"
   sodipodi:docname="reduce.svg"
   inkscape:version="1.0 (b51213c273, 2020-08-10)"><sodipodi:namedview
     pagecolor="#ffffff"
     bordercolor="#666666"
     borderopacity="1"
     objecttolerance="10"
     gridtolerance="10"
     guidetolerance="10"
     inkscape:pageopacity="0"
     inkscape:pageshadow="2"
     inkscape:window-width="1875"
     inkscape:window-height="1138"
     id="namedview320"
     showgrid="false"
     showguides="true"
     inkscape:guide-bbox="true"
     inkscape:zoom="2.0440379"
     inkscape:cx="225.00025"
     inkscape:cy="69.65404"
     inkscape:window-x="45"
     inkscape:window-y="34"
     inkscape:window-maximized="1"
     inkscape:current-layer="g316" /><metadata
     id="metadata2"><rdf:RDF><cc:Work
         rdf:about=""><dc:format>image/svg+xml</dc:format><dc:type
           rdf:resource="http://purl.org/dc/dcmitype/StillImage" /><dc:title></dc:title></cc:Work></rdf:RDF></metadata><defs
     id="defs106"><marker
       id="ExperimentalArrow"
       refX="5"
       refY="3"
       orient="auto-start-reverse"
       inkscape:stockid="ExperimentalArrow"
       inkscape:isstock="true"><path
         style="fill:context-stroke;stroke:#404040;stroke-opacity:1"
         d="M 10,3 0,6 V 0 Z"
         id="path1731" /></marker><marker
       style="overflow:visible"
       id="Arrow1Lstart"
       refX="0"
       refY="0"
       orient="auto"
       inkscape:stockid="Arrow1Lstart"
       inkscape:isstock="true"><path
         transform="matrix(0.8,0,0,0.8,10,0)"
         style="fill:#404040;fill-opacity:1;fill-rule:evenodd;stroke:#404040;stroke-width:1pt;stroke-opacity:1"
         d="M 0,0 5,-5 -12.5,0 5,5 Z"
         id="path1478" /></marker><marker
       style="overflow:visible"
       id="Arrow1Sstart"
       refX="0"
       refY="0"
       orient="auto"
       inkscape:stockid="Arrow1Sstart"
       inkscape:isstock="true"><path
         transform="matrix(0.2,0,0,0.2,1.2,0)"
         style="fill:#404040;fill-opacity:1;fill-rule:evenodd;stroke:#404040;stroke-width:1pt;stroke-opacity:1"
         d="M 0,0 5,-5 -12.5,0 5,5 Z"
         id="path1490" /></marker><marker
       style="overflow:visible"
       id="marker1741"
       refX="0"
       refY="0"
       orient="auto"
       inkscape:stockid="Arrow1Mend"
       inkscape:isstock="true"><path
         transform="matrix(-0.4,0,0,-0.4,-4,0)"
         style="fill:#404040;fill-opacity:1;fill-rule:evenodd;stroke:#404040;stroke-width:1pt;stroke-opacity:1"
         d="M 0,0 5,-5 -12.5,0 5,5 Z"
         id="path1487" /></marker><clipPath
       id="clipPath7989"><path
         d="m 479.34,168.8 h 56.828 v 22.594 H 479.34 Z"
         id="path4" /></clipPath><clipPath
       id="clipPath8003"><path
         d="m 506.81,175.09 h 8 v 8 h -8 z"
         id="path7" /></clipPath><clipPath
       id="clipPath8013"><path
         d="m 519.81,175.09 h 8 v 8 h -8 z"
         id="path10" /></clipPath><clipPath
       id="clipPath8023"><path
         d="m 492.47,150.07 h 56.828 v 22.594 H 492.47 Z"
         id="path13" /></clipPath><clipPath
       id="clipPath8037"><path
         d="m 519.93,156.28 h 8 v 8 h -8 z"
         id="path16" /></clipPath><clipPath
       id="clipPath8047"><path
         d="m 528.7,160.1 h 15.657 v 16.657 H 528.7 Z"
         id="path19" /></clipPath><clipPath
       id="clipPath8061"><path
         d="m 532.93,156.37 h 8 v 8 h -8 z"
         id="path22" /></clipPath><clipPath
       id="clipPath8071"><path
         d="m 505.59,131.35 h 56.828 v 22.594 H 505.59 Z"
         id="path25" /></clipPath><clipPath
       id="clipPath8085"><path
         d="m 533.06,137.46 h 8 v 8 h -8 z"
         id="path28" /></clipPath><clipPath
       id="clipPath8095"><path
         d="m 541.83,141.37 h 15.657 v 16.657 H 541.83 Z"
         id="path31" /></clipPath><clipPath
       id="clipPath8109"><path
         d="m 546.06,137.64 h 8 v 8 h -8 z"
         id="path34" /></clipPath><clipPath
       id="clipPath8119"><path
         d="m 547.06,118.64 h 8 v 8 h -8 z"
         id="path37" /></clipPath><clipPath
       id="clipPath8129"><path
         d="m 416.56,171.39 h 8 v 8 h -8 z"
         id="path40" /></clipPath><clipPath
       id="clipPath8139"><path
         d="m 429.56,171.39 h 8 v 8 h -8 z"
         id="path43" /></clipPath><clipPath
       id="clipPath8149"><path
         d="m 442.69,171.39 h 8 v 8 h -8 z"
         id="path46" /></clipPath><clipPath
       id="clipPath8159"><path
         d="m 455.82,171.39 h 8 v 8 h -8 z"
         id="path49" /></clipPath><clipPath
       id="clipPath8169"><path
         d="m 412.33,174.65 h 15.657 v 16.657 H 412.33 Z"
         id="path52" /></clipPath><clipPath
       id="clipPath8183"><path
         d="m 425.33,174.65 h 15.657 v 16.657 H 425.33 Z"
         id="path55" /></clipPath><clipPath
       id="clipPath8197"><path
         d="m 438.46,174.65 h 15.657 v 16.657 H 438.46 Z"
         id="path58" /></clipPath><clipPath
       id="clipPath8211"><path
         d="m 451.58,174.65 h 15.657 v 16.657 H 451.58 Z"
         id="path61" /></clipPath><clipPath
       id="clipPath8225"><path
         d="m 411.35,167.92 h 59.122 v 21.594 H 411.35 Z"
         id="path64" /></clipPath><clipPath
       id="clipPath8237"><path
         d="m 377.48,167.8 h 37.49 v 22.594 h -37.49 z"
         id="path67" /></clipPath><clipPath
       id="clipPath8251"><path
         d="m 470.36,177.21 h 12.992 v 5 H 470.36 Z"
         id="path70" /></clipPath><clipPath
       id="clipPath8265"><path
         d="m 556.36,120.14 h 12.992 v 5 H 556.36 Z"
         id="path73" /></clipPath><clipPath
       id="clipPath8279"><path
         d="m 570.62,118.64 h 8 v 8 h -8 z"
         id="path76" /></clipPath><clipPath
       id="clipPath8289"><path
         d="m 482.9,170.12 h 46.717 v 2.5 H 482.9 Z"
         id="path79" /></clipPath><clipPath
       id="clipPath8301"><path
         d="m 495.9,151.12 h 46.717 v 2.5 H 495.9 Z"
         id="path82" /></clipPath><clipPath
       id="clipPath8313"><path
         d="m 509.9,132.12 h 46.717 v 2.5 H 509.9 Z"
         id="path85" /></clipPath><clipPath
       id="clipPath8325"><path
         d="m 518.84,173.75 5.4832,-8.0026 -4.1247,-2.8262 -5.4832,8.0026 z"
         id="path88" /></clipPath><clipPath
       id="clipPath8331"><path
         d="M 0,0 H 1100 V 850 H 0 Z"
         id="path91" /></clipPath><clipPath
       id="clipPath8345"><path
         d="m 531.84,154.75 5.4832,-8.0026 -4.1247,-2.8262 -5.4832,8.0026 z"
         id="path94" /></clipPath><clipPath
       id="clipPath8351"><path
         d="M 0,0 H 1100 V 850 H 0 Z"
         id="path97" /></clipPath><clipPath
       id="clipPath8365"><path
         d="m 544.84,135.75 5.4832,-8.0026 -4.1247,-2.8262 -5.4832,8.0026 z"
         id="path100" /></clipPath><clipPath
       id="clipPath8371"><path
         d="M 0,0 H 1100 V 850 H 0 Z"
         id="path103" /></clipPath><marker
       id="Arrow1Mend"
       overflow="visible"
       orient="auto"><path
         transform="matrix(-0.4,0,0,-0.4,-4,0)"
         d="M 0,0 5,-5 -12.5,0 5,5 Z"
         fill="#404040"
         fill-rule="evenodd"
         stroke="#404040"
         stroke-width="1pt"
         id="path7-9" /></marker><marker
       id="marker6735"
       overflow="visible"
       orient="auto"><path
         transform="matrix(-0.4,0,0,-0.4,-4,0)"
         d="M 0,0 5,-5 -12.5,0 5,5 Z"
         fill="#404040"
         fill-rule="evenodd"
         stroke="#404040"
         stroke-width="1pt"
         id="path4-6" /></marker></defs><g
     transform="matrix(1.3333,0,0,-1.3333,504.41647,744.06227)"
     id="g316"><g
       id="g2053"><text
         transform="scale(1,-1)"
         x="-379.41165"
         y="-527.96875"
         fill="#404040"
         font-family="Sans"
         font-size="12px"
         letter-spacing="0px"
         stroke-width="0.75px"
         word-spacing="0px"
         style="line-height:125%"
         xml:space="preserve"
         id="text14"><tspan
           x="-379.41165"
           y="-527.96875"
           fill="#404040"
           stroke-width="0.75px"
           id="tspan12">reduce(      , func, ...)</tspan></text><g
         transform="translate(102.60011,-226.44434)"
         id="g28"><rect
           transform="scale(1,-1)"
           x="-430.10001"
           y="-780.53003"
           width="9.5852003"
           height="9.5852003"
           fill="#00ff68"
           opacity="0.9"
           stroke-width="0.99998"
           id="rect16" /><g
           stroke-width="0.99998"
           id="g24"><rect
             transform="scale(1,-1)"
             x="-430.19"
             y="-768.78998"
             width="9.5852003"
             height="9.5852003"
             fill="#00bf4f"
             opacity="0.9"
             id="rect18" /><rect
             transform="scale(1,-1)"
             x="-430.19"
             y="-757.03003"
             width="9.5852003"
             height="9.5852003"
             fill="#008034"
             opacity="0.9"
             id="rect20" /><rect
             transform="scale(1,-1)"
             x="-430.14999"
             y="-745.12"
             width="9.5852003"
             height="9.5852003"
             fill="#00401a"
             opacity="0.9"
             id="rect22" /></g><rect
           transform="scale(1,-1)"
           x="-434.14001"
           y="-784.13"
           width="17.431"
           height="51.977001"
           ry="7.9527001"
           fill="none"
           opacity="0.9"
           stroke="#404040"
           stroke-width="0.74998"
           id="rect26" /></g><g
         id="g1992"
         transform="translate(2.5035133,12.174851)"><rect
           transform="scale(1,-1)"
           x="-62.245811"
           y="-524.28479"
           width="9.5852003"
           height="9.5852003"
           fill="#007480"
           opacity="0.9"
           id="rect34"
           style="stroke-width:0.99998" /><rect
           transform="scale(1,-1)"
           x="-66.156136"
           y="-528.89697"
           width="17.431"
           height="18.762291"
           ry="2.8707097"
           fill="none"
           opacity="0.9"
           stroke="#404040"
           stroke-width="0.450596"
           id="rect40"
           style="stroke-width:0.750019;stroke-miterlimit:4;stroke-dasharray:none" /></g><path
         d="m -250.38189,531.63066 18.452,-0.10917"
         fill="none"
         marker-end="url(#Arrow1Mend)"
         stroke="#404040"
         stroke-width="0.75"
         id="path74" /><g
         id="g2015"
         transform="translate(-1.4675948,14.853882)"><g
           id="g1906"><g
             transform="translate(-16.688261,-136.27881)"
             id="g50"><text
               transform="scale(1,-1)"
               x="-206.41005"
               y="-664.38751"
               fill="#404040"
               font-family="Sans"
               font-size="12px"
               letter-spacing="0px"
               stroke-width="0.75px"
               word-spacing="0px"
               style="line-height:125%"
               xml:space="preserve"
               id="text46"><tspan
                 x="-206.41005"
                 y="-664.38751"
                 fill="#404040"
                 stroke-width="0.75px"
                 id="tspan44">func(    ,    , ...)</tspan></text><rect
               transform="scale(1,-1)"
               x="-173.11"
               y="-672.96002"
               width="9.5852003"
               height="9.5852003"
               fill="#00ff68"
               opacity="0.9"
               stroke-width="0.99998"
               id="rect48" /></g><rect
             transform="scale(1,-1)"
             x="-170.67233"
             y="-536.80426"
             width="9.5852003"
             height="9.5852003"
             fill="#00bf4f"
             opacity="0.9"
             stroke-width="0.99998"
             id="rect52" /></g><g
           id="g1937"
           transform="translate(0,3.000075)"><path
             d="m -220.94845,521.91551 c 0.51223,-9.27982 0.96213,-9.27083 13.60164,-8.88553"
             fill="none"
             marker-end="url(#marker6735)"
             stroke="#404040"
             stroke-width="0.75"
             id="path76-4"
             sodipodi:nodetypes="cc" /><g
             id="g1929"><rect
               transform="scale(1,-1)"
               x="-171.30704"
               y="-518.92902"
               width="9.5852003"
               height="9.5852003"
               fill="#00e8ff"
               opacity="0.9"
               stroke-width="0.99998"
               id="rect30" /><rect
               transform="scale(1,-1)"
               x="-151.83426"
               y="-518.86243"
               width="9.5852003"
               height="9.5852003"
               fill="#008034"
               opacity="0.9"
               stroke-width="0.99998"
               id="rect58" /><text
               transform="scale(1,-1)"
               x="-205.08469"
               y="-510.17575"
               fill="#404040"
               font-family="Sans"
               font-size="12px"
               letter-spacing="0px"
               stroke-width="0.75px"
               word-spacing="0px"
               style="line-height:125%"
               xml:space="preserve"
               id="text1895"><tspan
                 x="-205.08469"
                 y="-510.17575"
                 fill="#404040"
                 stroke-width="0.75px"
                 id="tspan1893">func(    ,    , ...)</tspan></text></g></g><g
           id="g1971"><rect
             transform="scale(1,-1)"
             x="-153.47827"
             y="-507.4516"
             width="9.5852003"
             height="9.5852003"
             fill="#00aebf"
             opacity="0.9"
             id="rect32"
             style="stroke-width:0.99998" /><rect
             transform="scale(1,-1)"
             x="-134.40645"
             y="-507.43408"
             width="9.5852003"
             height="9.5852003"
             fill="#00401a"
             opacity="0.9"
             stroke-width="0.99998"
             id="rect64" /><path
             d="m -203.11917,510.45149 c 0.51223,-9.27982 0.96213,-9.27083 13.60164,-8.88553"
             fill="none"
             marker-end="url(#marker6735)"
             stroke="#404040"
             stroke-width="0.75"
             id="path1939"
             sodipodi:nodetypes="cc" /><text
             transform="scale(1,-1)"
             x="-187.2554"
             y="-498.71173"
             fill="#404040"
             font-family="Sans"
             font-size="12px"
             letter-spacing="0px"
             stroke-width="0.75px"
             word-spacing="0px"
             style="line-height:125%"
             xml:space="preserve"
             id="text1947"><tspan
               x="-187.2554"
               y="-498.71173"
               fill="#404040"
               stroke-width="0.75px"
               id="tspan1945">func(    ,    , ...)</tspan></text></g></g><path
         d="m -91.905038,531.8283 18.452,-0.10917"
         fill="none"
         marker-end="url(#Arrow1Mend)"
         stroke="#404040"
         stroke-width="0.75"
         id="path1994" /></g></g></svg>
