<?xml version="1.0" encoding="UTF-8"?>
<svg width="164.92" height="70.305" version="1.1" viewBox="0 0 164.92 70.305" xml:space="preserve" xmlns="http://www.w3.org/2000/svg" xmlns:cc="http://creativecommons.org/ns#" xmlns:dc="http://purl.org/dc/elements/1.1/" xmlns:rdf="http://www.w3.org/1999/02/22-rdf-syntax-ns#" xmlns:xlink="http://www.w3.org/1999/xlink"><metadata><rdf:RDF><cc:Work rdf:about=""><dc:format>image/svg+xml</dc:format><dc:type rdf:resource="http://purl.org/dc/dcmitype/StillImage"/><dc:title/></cc:Work></rdf:RDF></metadata><defs><marker id="Arrow1Mend" overflow="visible" orient="auto"><path transform="matrix(-.4 0 0 -.4 -4 0)" d="m0 0 5-5-17.5 5 17.5 5z" fill="#404040" fill-rule="evenodd" stroke="#404040" stroke-width="1pt"/></marker></defs><g transform="matrix(1.3333 0 0 -1.3333 369.4 960.08)"><g transform="translate(-237.24 112.49)"><text fill="#000000" font-family="Sans" font-size="12px" letter-spacing="0px" word-spacing="0px" style="line-height:125%;shape-inside:url(#rect4788);white-space:pre" xml:space="preserve"/><text transform="scale(1,-1)" x="-40.081692" y="-577.41943" fill="#404040" font-family="Sans" font-size="12px" letter-spacing="0px" stroke-width=".75px" word-spacing="0px" style="line-height:125%" xml:space="preserve"><tspan x="-40.081692" y="-577.41943" fill="#404040" stroke-width=".75px">func(      ,  ...)</tspan></text><g transform="translate(-27.725 58.923)"><g fill="#00ff68"><rect transform="scale(1,-1)" x="23.8" y="-544.67" width="9.5854" height="9.5854" opacity=".9"/><rect transform="scale(1,-1)" x="23.719" y="-532.93" width="9.5854" height="9.5854" opacity=".9"/><rect transform="scale(1,-1)" x="23.717" y="-521.17" width="9.5854" height="9.5854" opacity=".9"/><rect transform="scale(1,-1)" x="23.758" y="-509.26" width="9.5854" height="9.5854" opacity=".9"/></g><rect transform="scale(1,-1)" x="19.767" y="-548.27" width="17.431" height="51.978" ry="7.9529" fill="none" opacity=".9" stroke="#404040" stroke-width=".75"/></g><rect transform="scale(1,-1)" x="74.3" y="-586.5" width="9.5854" height="9.5854" fill="#00e8ff" opacity=".9"/><path d="m44.522 581.18 25.122 0.0877" fill="none" marker-end="url(#Arrow1Mend)" stroke="#404040" stroke-width=".75"/></g></g></svg>
